<svg xmlns="http://www.w3.org/2000/svg" version="1.0" viewBox="0 0 334 235"><path fill="#FFF" fill-opacity=".5" d="m33.2 71.2.3 48.3.2-47.7.3-47.7 2.3-.4 2.2-.4-2.7-.2L33 23l.2 48.2zm9.1-47.5c.9.2 2.3.2 3 0l1.2-.5h-6l1.8.5zm8 0c.9.2 2.3.2 3 0l1.2-.5h-6l1.8.5zm8.5 0c.6.2 1.8.2 2.5 0l1.2-.5h-5l1.3.5zm8.5 0c.9.2 2.5.2 3.5 0l1.7-.5h-7l1.8.5zm8 0c.9.2 2.5.2 3.5 0l1.7-.5h-7l1.8.5zm8 0c.9.2 2.5.2 3.5 0l1.7-.5h-7l1.8.5zm9.5 0c.6.2 1.8.2 2.5 0l1.2-.5h-5l1.3.5zm8 0c.6.2 1.8.2 2.5 0l1.2-.5h-5l1.3.5zm10 0c.6.2 1.8.2 2.5 0l1.2-.5h-5l1.3.5zm8 0c.6.2 1.8.2 2.5 0l1.2-.5h-5l1.3.5zm8 0c.6.2 1.8.2 2.5 0l1.2-.5h-5l1.3.5zm8 0c.6.2 1.8.2 2.5 0l1.2-.5h-5l1.3.5zm8 0c.6.2 1.8.2 2.5 0l1.2-.5h-5l1.3.5zm10 0c.6.2 1.8.2 2.5 0l1.2-.5h-5l1.3.5zm8 0c.6.2 1.8.2 2.5 0l1.2-.5h-5l1.3.5zm9 0c2.3.2 5.9.2 8 0l3.7-.4h-16l4.3.4zm74.4 0 55.8.3.3 34.3.2 34.2.3-34.8.2-34.7-56.2.2-56.3.3 55.7.2zm56.3 130.8c0 30.8.1 43.5.2 28.3.2-15.2.2-40.4 0-56-.1-15.6-.2-3.1-.2 27.7zM41.3 211.7c4.8.2 12.5.2 17 0 4.5-.1.6-.3-8.8-.3h-17l8.8.3zm184.5 0c13.8.2 36.6.2 50.5 0 13.8-.1 2.5-.2-25.3-.2s-39.1.1-25.2.2z"/><path fill="#FFF" fill-opacity=".4" d="M38.8 23.7c.7.3 1.6.2 1.9-.1.4-.3-.2-.6-1.3-.5l-1.9.1 1.3.5zm8 0c.7.3 1.6.2 1.9-.1.4-.3-.2-.6-1.3-.5l-1.9.1 1.3.5zm8 0c.6.2 1.8.2 2.5 0l1.2-.5h-5l1.3.5zm8 0c.6.2 1.8.2 2.5 0l1.2-.5h-5l1.3.5zm26 0c.6.2 1.8.2 2.5 0l1.2-.5h-5l1.3.5zm8 0c.6.2 1.8.2 2.5 0l1.2-.5h-5l1.3.5zm8.5 0c.9.2 2.5.2 3.5 0l1.7-.5h-7l1.8.5zm9.5 0c.6.2 1.8.2 2.5 0l1.2-.5h-5l1.3.5zm8 0c.6.2 1.8.2 2.5 0l1.2-.5h-5l1.3.5zm8 0c.6.2 1.8.2 2.5 0l1.2-.5h-5l1.3.5zm8 0c.6.2 1.8.2 2.5 0l1.2-.5h-5l1.3.5zm8.5 0c.9.2 2.5.2 3.5 0l1.7-.5h-7l1.8.5zm9.5 0c.6.2 1.8.2 2.5 0l1.2-.5h-5l1.3.5zM33.1 122.6l.1 1.9.5-1.3c.3-.7.2-1.6-.1-1.9-.3-.4-.6.2-.5 1.3zm.1 6.9v3l.5-1.8c.2-.9.2-2.3 0-3l-.5-1.2v3zm0 8v3l.5-1.8c.2-.9.2-2.3 0-3l-.5-1.2v3zm-.1 7.1.1 1.9.5-1.3c.3-.7.2-1.6-.1-1.9-.3-.4-.6.2-.5 1.3zm.1 6.9v3l.5-1.8c.2-.9.2-2.3 0-3l-.5-1.2v3zm-.1 29.1.1 1.9.5-1.3c.3-.7.2-1.6-.1-1.9-.3-.4-.6.2-.5 1.3zm0 6 .1 1.9.5-1.3c.3-.7.2-1.6-.1-1.9-.3-.4-.6.2-.5 1.3zm0 8 .1 1.9.5-1.3c.3-.7.2-1.6-.1-1.9-.3-.4-.6.2-.5 1.3zm0 8 .1 1.9.5-1.3c.3-.7.2-1.6-.1-1.9-.3-.4-.6.2-.5 1.3zm.1 6.4v2.5l.5-1.3c.2-.6.2-1.8 0-2.5l-.5-1.2v2.5z"/><path fill="#FF8000" fill-opacity=".5" d="M184.8 23.7c.7.3 1.6.2 1.9-.1.4-.3-.2-.6-1.3-.5l-1.9.1 1.3.5z"/><path fill="#FFF" d="M34 89.2v65.1l3.1-6.1 3.1-6.2 4.5-4.5 4.5-4.5 8.2-4c4.5-2.2 9-4 9.9-4H69l1.1-2.8c.6-1.5 3-6.5 5.2-11.1l4-8.5 7.2-7.1 7.1-7.2 8.5-4.2 8.4-4.2 8-1.4c4.4-.8 10.3-1.4 13.2-1.5 6.7 0 19.2 2.4 24.7 4.8l4.4 2 6.8-6.7 6.9-6.7 6.5-3.2c3.6-1.7 9.2-3.8 12.5-4.7l5.9-1.5h14.1l6.2 1.5c3.5.8 9.3 2.9 13 4.7l6.7 3.3L246 77l6.7 6.6 4 8.1 4.1 8.1 1.2 7.3 1.3 7.3-.7 7.2-.6 7.2-2.3 6.5c-3.2 8.7-7 15-12.8 21l-4.9 5.1v3.2c0 5.7-2 13.8-4.9 20l-2.9 6.1-3.8 4.3c-4.9 5.4-11.1 9.6-19.3 13.1l-6.6 2.8 47.8.1H300v-65.3l-1.8 1.6-1.9 1.7h-2.9c-1.7 0-6.8-1.1-11.4-2.4l-8.5-2.5-1.2-1.7c-.7-1-1.3-3-1.3-4.6V135l2-2 2-2h2.8c1.5 0 6.6 1.1 11.2 2.4l8.5 2.5 1.2 1.7 1.3 1.8v-38.6l-1.7.7c-3 1.3-18.7 5.5-20.5 5.5-1 0-2.7-.9-3.8-2l-2-2v-6.7l1.8-1.5c2.1-2 15.6-5.8 20.3-5.8h3.5l1.2 1.2 1.2 1.2V24h-65l2 2 2 2v2.3c0 1.2-1.1 6.3-2.5 11.2l-2.4 9-1.8 1.2-1.7 1.3h-6.3l-1.5-1.8c-.8-.9-1.8-2.4-2.1-3.3l-.6-1.7 2.5-9.3 2.5-9.4 2.1-1.8 2-1.7h-38.4l.7 1.7c1.6 3.9 4.5 16 4.5 18.8 0 3.6-.7 4.8-3.7 6.4-3.2 1.6-5.1 1.4-7.7-1.2l-2.3-2.3-2.3-9.3-2.3-9.2 1.1-2.5L180 24H34v65.2zm121.2-36.4 7.8 7.8v6.3l-2.6 2c-4.7 3.7-6.9 2.8-16.3-7.2l-6.4-6.7v-6.3l2.2-1.9 2.3-1.8h5.2l7.8 7.8zm121.5-2.6 2.3 2.1v5.1l-7.8 7.8-7.8 7.8h-4.1l-2.7-2.1-2.6-2v-6.4l7.2-7.2 7.2-7.3h6l2.3 2.2zm-8 121.1 7.3 7.3v5.5l-2.6 2.6-2.5 2.5-3.2-.6-3.2-.6-5.3-5.3c-8.6-8.4-9.9-12.1-5.7-16.2l2.4-2.5h5.5l7.3 7.3zM34 195.9V211h29.5l-6.3-3-6.2-2.9-4.8-4.8-4.8-4.8-3.7-7.4-3.7-7.4v15.2z"/><path fill="#FFBFBF" d="M178.2 29.5v3l.5-1.8c.2-.9.2-2.3 0-3l-.5-1.2v3zm13.9.1.1 1.9.5-1.3c.3-.7.2-1.6-.1-1.9-.3-.4-.6.2-.5 1.3zm46.1 1.4v3.5l.5-1.8c.2-.9.2-2.5 0-3.5l-.5-1.7V31zm-45.1 2.6.1 1.9.5-1.3c.3-.7.2-1.6-.1-1.9-.3-.4-.6.2-.5 1.3zm-14 1 .1 1.9.5-1.3c.3-.7.2-1.6-.1-1.9-.3-.4-.6.2-.5 1.3zm44 1 .1 1.9.5-1.3c.3-.7.2-1.6-.1-1.9-.3-.4-.6.2-.5 1.3zm14 1 .1 1.9.5-1.3c.3-.7.2-1.6-.1-1.9-.3-.4-.6.2-.5 1.3zm-43 1 .1 1.9.5-1.3c.3-.7.2-1.6-.1-1.9-.3-.4-.6.2-.5 1.3zm1 4 .1 1.9.5-1.3c.3-.7.2-1.6-.1-1.9-.3-.4-.6.2-.5 1.3zm-51.8 4.1c.9.2 2.3.2 3 0l1.2-.5h-6l1.8.5zm50.2 3.3-.6 1h1c.6 0 1.1-.5 1.1-1 0-.6-.2-1-.4-1-.3 0-.8.4-1.1 1zm38 2-.6 1h1c.6 0 1.1-.5 1.1-1 0-.6-.2-1-.4-1-.3 0-.8.4-1.1 1zm-43.7.7c.6.2 1.8.2 2.5 0l1.2-.5h-5l1.3.5zm90.4 3.3v2.5l.5-1.3c.2-.6.2-1.8 0-2.5l-.5-1.2V55zm-116 9v3.5l.5-1.8c.2-.9.2-2.5 0-3.5l-.5-1.7V64zm37.1-2.3c.9.2 2.3.2 3 0l1.2-.5h-6l1.8.5zm12 0c.9.2 2.3.2 3 0l1.2-.5h-6l1.8.5zm-17.5 1c.7.3 1.6.2 1.9-.1.4-.3-.2-.6-1.3-.5l-1.9.1 1.3.5zm60.3.9.1 1.9.5-1.3c.3-.7.2-1.6-.1-1.9-.3-.4-.6.2-.5 1.3zm0 4 .1 1.9.5-1.3c.3-.7.2-1.6-.1-1.9-.3-.4-.6.2-.5 1.3zm-99.3 3.1c.6.2 1.8.2 2.5 0l1.2-.5h-5l1.3.5zm135 19c.7.3 1.6.2 1.9-.1.4-.3-.2-.6-1.3-.5l-1.9.1 1.3.5zM261.2 106v2.5l.5-1.3c.2-.6.2-1.8 0-2.5l-.5-1.2v2.5zm25.6-1.3c.7.3 1.6.2 1.9-.1.4-.3-.2-.6-1.3-.5l-1.9.1 1.3.5zm-4 1c.7.3 1.6.2 1.9-.1.4-.3-.2-.6-1.3-.5l-1.9.1 1.3.5zm-5.5 1c.9.2 2.3.2 3 0l1.2-.5h-6l1.8.5zm-15 10.3v6.5l.4-3.3c.2-1.7.2-4.7 0-6.5l-.4-3.2v6.5zm-1.2 10.6.1 1.9.5-1.3c.3-.7.2-1.6-.1-1.9-.3-.4-.6.2-.5 1.3zm18.7 4.1c.7.3 1.6.2 1.9-.1.4-.3-.2-.6-1.3-.5l-1.9.1 1.3.5zm11 3c.7.3 1.6.2 1.9-.1.4-.3-.2-.6-1.3-.5l-1.9.1 1.3.5zm-12 11c.7.3 1.6.2 1.9-.1.4-.3-.2-.6-1.3-.5l-1.9.1 1.3.5zm11 3c.7.3 1.6.2 1.9-.1.4-.3-.2-.6-1.3-.5l-1.9.1 1.3.5zm-32.5 16c.9.2 2.3.2 3 0l1.2-.5h-6l1.8.5zm-6.1 6.3v2.5l.5-1.3c.2-.6.2-1.8 0-2.5l-.5-1.2v2.5zm24 10.5v3l.5-1.8c.2-.9.2-2.3 0-3l-.5-1.2v3zm-7.4 7.2c.6.2 1.8.2 2.5 0l1.2-.5h-5l1.3.5z"/><path fill="#FFBF80" d="m195.1 44.6.1 1.9.5-1.3c.3-.7.2-1.6-.1-1.9-.3-.4-.6.2-.5 1.3zm26.1 1.4v2.5l.5-1.3c.2-.6.2-1.8 0-2.5l-.5-1.2V46zm-83 6v2.5l.5-1.3c.2-.6.2-1.8 0-2.5l-.5-1.2V52zm88.6.7c.7.3 1.6.2 1.9-.1.4-.3-.2-.6-1.3-.5l-1.9.1 1.3.5zm-22 9c1.2.2 3 .2 4 0l1.7-.5-4 .1h-4l2.3.4zm11 1c.7.3 1.6.2 1.9-.1.4-.3-.2-.6-1.3-.5l-1.9.1 1.3.5zm77.5 27c.9.2 2.3.2 3 0l1.2-.5h-6l1.8.5zM272.2 100v2.5l.5-1.3c.2-.6.2-1.8 0-2.5l-.5-1.2v2.5zm27 42v2.5l.5-1.3c.2-.6.2-1.8 0-2.5l-.5-1.2v2.5zm-6.4 6.7c.7.3 1.6.2 1.9-.1.4-.3-.2-.6-1.3-.5l-1.9.1 1.3.5z"/><path fill="#FFBF40" d="m179.1 29.6.1 1.9.5-1.3c.3-.7.2-1.6-.1-1.9-.3-.4-.6.2-.5 1.3zm58.1 1.9v3l.5-1.8c.2-.9.2-2.3 0-3l-.5-1.2v3zm-43.1 10.1.1 1.9.5-1.3c.3-.7.2-1.6-.1-1.9-.3-.4-.6.2-.5 1.3zm-50.8 5.1c.9.2 2.3.2 3 0l1.2-.5h-6l1.8.5zm45.5 4c.7.3 1.6.2 1.9-.1.4-.3-.2-.6-1.3-.5l-1.9.1 1.3.5zm88.4 4.3v2.5l.5-1.3c.2-.6.2-1.8 0-2.5l-.5-1.2V55zm-116 8.5v3l.5-1.8c.2-.9.2-2.3 0-3l-.5-1.2v3zm38.1-.8c.9.2 2.3.2 3 0l1.2-.5h-6l1.8.5zm12 0c.9.2 2.3.2 3 0l1.2-.5h-6l1.8.5zm-17.5 1c.7.3 1.6.2 1.9-.1.4-.3-.2-.6-1.3-.5l-1.9.1 1.3.5zm-39 6c.6.2 1.8.2 2.5 0l1.2-.5h-5l1.3.5zm135 21c.7.3 1.6.2 1.9-.1.4-.3-.2-.6-1.3-.5l-1.9.1 1.3.5zm-7 14c.7.3 1.6.2 1.9-.1.4-.3-.2-.6-1.3-.5l-1.9.1 1.3.5zm-22.7 1.9.1 1.9.5-1.3c.3-.7.2-1.6-.1-1.9-.3-.4-.6.2-.5 1.3zm17.7-.9c.6.2 1.8.2 2.5 0l1.2-.5h-5l1.3.5zM261.3 117v7.5l.4-3.8c.2-2 .2-5.4 0-7.5l-.4-3.7v7.5zm-1.2 10.6.1 1.9.5-1.3c.3-.7.2-1.6-.1-1.9-.3-.4-.6.2-.5 1.3zm19.7 5.1c.7.3 1.6.2 1.9-.1.4-.3-.2-.6-1.3-.5l-1.9.1 1.3.5zm10 15c.7.3 1.6.2 1.9-.1.4-.3-.2-.6-1.3-.5l-1.9.1 1.3.5zm-32.5 18c.9.2 2.3.2 3 0l1.2-.5h-6l1.8.5zm-5.1 5.3v2.5l.5-1.3c.2-.6.2-1.8 0-2.5l-.5-1.2v2.5zm22 11v2.5l.5-1.3c.2-.6.2-1.8 0-2.5l-.5-1.2v2.5zm-6.4 5.7c.6.2 1.8.2 2.5 0l1.2-.5h-5l1.3.5z"/><path fill="#FFBF00" d="m182.2 24.9-1.3.8-.4 3.6-.3 3.7h1.9l-.6 2-.6 2h1.9l-.5 2-.5 2h2.1l-.5 1.4-.5 1.4 1 .6 1 .7-.5 1.3-.5 1.4 1.1.7c.6.3 2.4.8 4 1l3 .4 1.6-2.4 1.6-2.5-.7-1.7c-.5-1-.7-2.4-.6-3.1l.2-1.2h-2.2l.6-2 .6-2h-2.2l.6-2 .6-2h-2l.6-1.5.5-1.6-1.7-1.9-1.8-2h-2.1c-1.2 0-2.7.4-3.4.9zM231 26v1.1l-1.7-.3-1.8-.3.3 1.2.2 1.3h-2.1l.6 2 .6 2h-2.2l.6 2 .6 2h-2.3l.6 1.5.5 1.5h-2l.6 2 .6 2H222v4h1c.6 0 .9.6.8 1.2l-.3 1.3 1.3-.3c.6-.1 1.2.3 1.2.8s.7 1 1.5 1h1.5v-2.3l.7.6.6.7 1.3-1.1 1.3-1-.6-1.5-.5-1.4h2.4l-.6-1.5-.5-1.5h2.1l-.5-2-.5-2h1.9l-.6-2-.6-2h1.8l-.2-3.4c-.1-1.8-.5-3.9-.9-4.5l-.7-1.1-1 .5-.9.6v-1c0-.6-.4-1.1-1-1.1-.5 0-1 .5-1 1zm-90.1 21.9c-.1.3-.1.9 0 1.3 0 .5-.3.8-.9.8h-1v4.2l6.9 7.2 7 7.1 3-.1c3.9-.1 4.3-.5 4.6-4.8l.2-3.5-6.4-6.3-6.3-6.2-3.5-.2c-1.9 0-3.6.2-3.6.5zM271 50.1v1.1l-1.4-.5-1.3-.5-5.8 5.8-5.8 5.9v3.4c0 1.8.3 3.8.6 4.4l.7 1.1 3-.2 3-.1 6.2-6.2 6.3-6.2-.1-2.9c0-1.6-.4-3.4-.8-4l-.7-1.2-1 .5-.9.6v-1c0-.6-.4-1.1-1-1.1-.5 0-1 .5-1 1.1zm-70.5 12.6c-5.5.7-13.8 3.4-19.6 6.4l-5.7 2.8-6.1 5.7c-3.4 3.1-6.1 6-6.1 6.4 0 .4 2.4 2.3 5.3 4.2 6.9 4.6 14.5 12.5 18.2 18.8l3 5.1 4.2-.6 4.2-.6 6.3 1.1 6.3 1.2 5.5 2.6 5.5 2.6 5.8 5.7 5.7 5.7 3.4 7.2 3.4 7.1 1.2 6.9 1.2 7 1.6-.9c1.9-1 8.7-9.7 8.1-10.3-.2-.2.6-1.4 1.9-2.8 2-2.1 2.7-4 2.3-6.3 0-.4.4-.7 1-.7h1.1l-.6-1.5-.5-1.5h2.1l-.6-1.5-.5-1.5h1.9l-.6-2.5-.6-2.5h1.7v-18h-1.7l.6-2.5.6-2.5h-2.2l.6-1.5.5-1.5h-2.1l.6-1.5.5-1.5h-2l.6-1 .6-.9-1.6-3.1c-.8-1.6-2-3-2.5-3-.6 0-.9-.4-.8-.9.2-.4-1.2-2.9-3.1-5.6l-3.4-4.7-5.8-4.3-5.7-4.2-6.7-2.7-6.6-2.6-6.7-1c-6.8-1-8.4-1-13.7-.3zM292 91.2v.9l-2-.6-2-.6v2.2l-2-.6-2-.6v2.2l-2-.6-2-.6v2.3l-1.5-.6-1.5-.6-2 2c-2.1 2.1-2.5 4.6-1.1 6.8l.8 1.4 3.7.2 3.6.1v-1.6l2 .6 2 .6v-2.2l2 .6 2 .6v-2.2l2 .6 2 .6v-2.2l1.7.3 1.7.3 1.5-2.8 1.6-2.8-1.5-.9c-.8-.5-1.1-1-.6-1h.8l-1.1-1.4-1.1-1.4h-5v1zm-15 41.7c0 .5-.8.8-1.7.7l-1.8-.1.1 3.6c0 1.9.4 4.1.8 4.7l.7 1.2 1-.5.9-.6v2.2l2-.6 2-.6v2l1.5-.5 1.5-.6v2.3l2-.6 2-.6v2.2l2-.6 2-.6v1c0 .6.7 1.1 1.5 1.1s1.5-.4 1.5-1c0-.5.6-.9 1.3-.7l1.2.2-.2-1.3c-.2-.6.2-1.2.7-1.2h1v-1.9c0-1.1-.7-2.7-1.6-3.5l-1.6-1.6-.9.5-.9.6v-2.2l-2 .6-2 .6v-2.3l-1.5.6-1.5.5v-2l-2 .6-2 .6v-2.2l-2 .6-2 .6v-1c0-.6-.4-1.1-1-1.1-.5 0-1 .4-1 .9zm-22.8 34.6c-.4.5-.7 2.3-.7 3.8v2.8l6 6.2 6 6.2h3c1.7 0 3.5-.4 4.2-.8l1.1-.7-.3-3.7-.4-3.6-5.6-5.7-5.6-5.6h-3.5l-3.6.1-.6 1z"/><path fill="#FF8000" d="m180.1 29.6.1 1.9.5-1.3c.3-.7.2-1.6-.1-1.9-.3-.4-.6.2-.5 1.3zm56.1 1.4v2.5l.5-1.3c.2-.6.2-1.8 0-2.5l-.5-1.2V31zm-92.4 16.7c.7.3 1.6.2 1.9-.1.4-.3-.2-.6-1.3-.5l-1.9.1 1.3.5zM276.2 55v2.5l.5-1.3c.2-.6.2-1.8 0-2.5l-.5-1.2V55zm-116 9v2.5l.5-1.3c.2-.6.2-1.8 0-2.5l-.5-1.2V64zm96 1.5v3l.5-1.8c.2-.9.2-2.3 0-3l-.5-1.2v3zm-101.4 3.2c.6.2 1.8.2 2.5 0l1.2-.5h-5l1.3.5zm123 36c.6.2 1.8.2 2.5 0l1.2-.5h-5l1.3.5zm-18.7 1.9.1 1.9.5-1.3c.3-.7.2-1.6-.1-1.9-.3-.4-.6.2-.5 1.3zm1.2 10.4v6.5l.4-3.3c.2-1.7.2-4.7 0-6.5l-.4-3.2v6.5zm-1.2 10.6.1 1.9.5-1.3c.3-.7.2-1.6-.1-1.9-.3-.4-.6.2-.5 1.3zm14.1 10.4v2.5l.5-1.3c.2-.6.2-1.8 0-2.5l-.5-1.2v2.5zm-16.4 28.7c.6.2 1.8.2 2.5 0l1.2-.5h-5l1.3.5zm-3.7 4.9.1 1.9.5-1.3c.3-.7.2-1.6-.1-1.9-.3-.4-.6.2-.5 1.3zm20 10 .1 1.9.5-1.3c.3-.7.2-1.6-.1-1.9-.3-.4-.6.2-.5 1.3zm-5.3 5.1c.7.3 1.6.2 1.9-.1.4-.3-.2-.6-1.3-.5l-1.9.1 1.3.5z"/><path fill="#BFBFBF" d="M128.8 77.7c1.7.2 4.7.2 6.5 0l3.2-.4h-13l3.3.4zm-10 1c.7.3 1.6.2 1.9-.1.4-.3-.2-.6-1.3-.5l-1.9.1 1.3.5zm24 0c.7.3 1.6.2 1.9-.1.4-.3-.2-.6-1.3-.5l-1.9.1 1.3.5zm98.5 85.8v5l.4-2.8c.2-1.5.2-3.7 0-5l-.4-2.2v5zm-1.2 9.1.1 1.9.5-1.3c.3-.7.2-1.6-.1-1.9-.3-.4-.6.2-.5 1.3zm-37.3 37.1c.7.3 1.6.2 1.9-.1.4-.3-.2-.6-1.3-.5l-1.9.1 1.3.5z"/><path fill="#80BFBF" d="M121.8 78.7c.6.2 1.8.2 2.5 0l1.2-.5h-5l1.3.5zm18 0c.7.3 1.6.2 1.9-.1.4-.3-.2-.6-1.3-.5l-1.9.1 1.3.5zm100.3 91.9.1 1.9.5-1.3c.3-.7.2-1.6-.1-1.9-.3-.4-.6.2-.5 1.3z"/><g fill="#40BFBF" stroke-width="0"><path d="M128.3 78.7c2 .2 5.4.2 7.5 0l3.7-.4h-15l3.8.4zm-9.5 1c.7.3 1.6.2 1.9-.1.4-.3-.2-.6-1.3-.5l-1.9.1 1.3.5zm24 0c.7.3 1.6.2 1.9-.1.4-.3-.2-.6-1.3-.5l-1.9.1 1.3.5zm-12 11c.7.3 1.6.2 1.9-.1.4-.3-.2-.6-1.3-.5l-1.9.1 1.3.5zm-9 1c.7.3 1.6.2 1.9-.1.4-.3-.2-.6-1.3-.5l-1.9.1 1.3.5zm18 0c.6.2 1.8.2 2.5 0l1.2-.5h-5l1.3.5zm5 1c.7.3 1.6.2 1.9-.1.4-.3-.2-.6-1.3-.5l-1.9.1 1.3.5zm-31 1c.7.3 1.6.2 1.9-.1.4-.3-.2-.6-1.3-.5l-1.9.1 1.3.5zm79 32c.6.2 1.8.2 2.5 0l1.2-.5h-5l1.3.5zm6 0c.7.3 1.6.2 1.9-.1.4-.3-.2-.6-1.3-.5l-1.9.1 1.3.5zm-116.7 3.9.1 1.9.5-1.3c.3-.7.2-1.6-.1-1.9-.3-.4-.6.2-.5 1.3zm-1 5 .1 1.9.5-1.3c.3-.7.2-1.6-.1-1.9-.3-.4-.6.2-.5 1.3z"/><path d="M77.8 136.7c.6.2 1.8.2 2.5 0l1.2-.5h-5l1.3.5zm-5 1c.7.3 1.6.2 1.9-.1.4-.3-.2-.6-1.3-.5l-1.9.1 1.3.5zM34.2 160v2.5l.5-1.3c.2-.6.2-1.8 0-2.5l-.5-1.2v2.5zm12 2v2.5l.5-1.3c.2-.6.2-1.8 0-2.5l-.5-1.2v2.5zm194.1 2.5v5l.4-2.8c.2-1.5.2-3.7 0-5l-.4-2.2v5zm-194.2 8.1.1 1.9.5-1.3c.3-.7.2-1.6-.1-1.9-.3-.4-.6.2-.5 1.3zM34.2 174v2.5l.5-1.3c.2-.6.2-1.8 0-2.5l-.5-1.2v2.5zm204.9-.4.1 1.9.5-1.3c.3-.7.2-1.6-.1-1.9-.3-.4-.6.2-.5 1.3zM67.8 210.7c.7.3 1.6.2 1.9-.1.4-.3-.2-.6-1.3-.5l-1.9.1 1.3.5zm131 0c.7.3 1.6.2 1.9-.1.4-.3-.2-.6-1.3-.5l-1.9.1 1.3.5z"/></g><path fill="#00BFBF" d="M125.3 90.7c.9.2 2.5.2 3.5 0l1.7-.5h-7l1.8.5zm9 0c.9.2 2.5.2 3.5 0l1.7-.5h-7l1.8.5zm54.5 35c.6.2 1.8.2 2.5 0l1.2-.5h-5l1.3.5zm13 0c.7.3 1.6.2 1.9-.1.4-.3-.2-.6-1.3-.5l-1.9.1 1.3.5zm-17 1c.7.3 1.6.2 1.9-.1.4-.3-.2-.6-1.3-.5l-1.9.1 1.3.5zm-28.7 2.9.1 1.9.5-1.3c.3-.7.2-1.6-.1-1.9-.3-.4-.6.2-.5 1.3zm-81.3 7.1c.7.3 1.6.2 1.9-.1.4-.3-.2-.6-1.3-.5l-1.9.1 1.3.5zm152.3 15.9.1 1.9.5-1.3c.3-.7.2-1.6-.1-1.9-.3-.4-.6.2-.5 1.3zm1.2 9.4v6.5l.4-3.3c.2-1.7.2-4.7 0-6.5l-.4-3.2v6.5zm-183 5.5v4l.4-2.3c.2-1.2.2-3 0-4l-.5-1.7.1 4zm181.8 4.1.1 1.9.5-1.3c.3-.7.2-1.6-.1-1.9-.3-.4-.6.2-.5 1.3zM66.8 197.7c.7.3 1.6.2 1.9-.1.4-.3-.2-.6-1.3-.5l-1.9.1 1.3.5zm133 0c.7.3 1.6.2 1.9-.1.4-.3-.2-.6-1.3-.5l-1.9.1 1.3.5zm-98 1c17.7.2 46.7.2 64.5 0 17.7-.1 3.2-.2-32.3-.2s-50 .1-32.2.2z"/><path fill="#0080BF" d="M120.5 79.6c-1.1.2-4 1-6.5 1.6-2.5.6-8 2.9-12.2 5l-7.7 4-5.4 5.2c-6.8 6.5-12.4 15.1-15.3 23.5l-2.3 6.5-7.3 2.6-7.3 2.5-4.6 3.2c-5.8 4-10.2 9.1-13.3 15.2l-2.5 4.8-1.1 6.6-1.2 6.5 1.2 7.3 1.1 7.3 3.1 6.3 3.1 6.4 6.2 5.7 6.1 5.8 6 2.4 5.9 2.5 64 .3 64 .3 5.5-1.1c3-.7 9.1-2.9 13.5-5l8-3.7 4.6-4.1 4.5-4.1 3.3-6.1c1.9-3.5 4-8.5 4.7-11.4l1.4-5.1v-18l-1.5-5.4c-.7-2.9-2.6-7.9-4.1-11l-2.8-5.6-5.3-5.3-5.3-5.3-6.6-3.1-6.7-3.1-9.6-.5-9.7-.4-3.4-5.5-3.5-5.5-6.7-6.3-6.7-6.2-6.5-3.2c-3.5-1.7-8.6-3.8-11.3-4.7l-4.8-1.5-11.5-.4c-6.3-.2-12.4-.2-13.5.1zM149.3 93c3.2 1.2 8.6 4 12 6.3l6.1 4.2 4.3 5.3c2.4 2.9 4.3 5.9 4.3 6.7v1.4l-2 .6c-1.2.4-5.4 2.9-9.5 5.6l-7.5 5v1.2c.1.7 1.6 3 3.4 5.1l3.4 3.9 6-4c3.3-2.2 8-5 10.4-6.2l4.4-2.1 6.3-.8 6.3-.9 5.1.9 5.2.9 4 2.4c5.3 3.1 9.8 7.9 12.8 14l2.6 5 1.2 6.3 1.2 6.3-.6 5.5c-.3 3.1-1.4 7.9-2.4 10.7l-1.8 5-4.4 4.9-4.3 4.8-7.7 3.8-7.6 3.7h-133l-4.7-2.4c-8.8-4.5-14.8-12.7-16.9-23.2l-1.1-5.6 1.1-5.5 1.2-5.6 2.9-4.5 2.9-4.6 4.2-3c4.5-3.3 13.2-6.9 19.3-8l4-.6 1.6-6.6 1.7-6.5 3.3-6.2 3.3-6.3 6.4-5.9 6.4-6 5-2.5c2.7-1.4 7.5-3.2 10.7-4l5.7-1.5 9.5.4 9.5.4 5.8 2.2z"/><path fill="#80BF40" d="M189.8 112.7c.6.2 1.8.2 2.5 0l1.2-.5h-5l1.3.5z"/><path fill="#BFBF00" d="M177 96.5c.7.9 1.5 1.3 1.7 1.1.7-.7-.7-2.6-1.9-2.6h-1l1.2 1.5zm18.8 15.2c1.2.2 3 .2 4 0l1.7-.5-4 .1h-4l2.3.4z"/><path fill="#40BF80" d="M195.8 112.7c.6.2 1.8.2 2.5 0l1.2-.5h-5l1.3.5z"/><path fill="#408080" d="M240.2 156.5v3l.5-1.8c.2-.9.2-2.3 0-3l-.5-1.2v3z"/><path fill="#40BFFF" d="M119 92.6c-3 .8-8 2.6-11 4.1l-5.5 2.7-6 6-6 6.1-2.8 5.2c-1.5 2.8-3.6 8.4-4.6 12.4l-1.8 7.3-6.2 1.2c-3.4.7-8.6 2.4-11.5 3.7l-5.3 2.4-3.8 3.8-3.8 3.8-2 4.6-2.1 4.6v14l2.5 5.5c1.4 3 3.8 7 5.4 8.8l2.8 3.3 5.1 2.7 5.1 2.7h132l5.5-2.2c3-1.3 7.7-4 10.5-6.1l5-3.8 3.2-6.1 3.1-6.2.8-5.8.7-5.8-1.2-6.8-1.1-6.8-2.1-4.2c-3.2-6.2-6.5-10.1-11-13.3l-4-2.8-5.8-1.1-5.7-1.2-6.3.8-6.3.9-5.1 2.6c-2.9 1.4-7.3 4.1-9.9 6-2.7 1.9-5.2 3.4-5.7 3.4-1.3 0-8.1-8.1-8.1-9.6 0-1.8 6.3-6.8 13.2-10.4 3.2-1.7 5.8-3.4 5.8-3.8 0-1.4-7.6-10.2-11.5-13.3-8.4-6.7-21.2-11-32.8-10.8h-6.2l-5.5 1.5z"/><path fill="#808040" d="M201.8 112.7c.7.3 1.6.2 1.9-.1.4-.3-.2-.6-1.3-.5l-1.9.1 1.3.5z"/><path fill="#0080BF" fill-opacity=".5" d="M102.2 211.7c17.5.2 46.1.2 63.5 0 17.5-.1 3.2-.2-31.7-.2s-49.2.1-31.8.2z"/></svg>